# xmcd CD database file
#
# Track frame offsets:
#	150
#	17433
#	33458
#	53190
#	69315
#	83215
#	97708
#	117535
#	132325
#	147023
#	168868
#
# Disc length: 2405 seconds
#
# Revision: 0
# Processed by: cddbd v1.4PL0 Copyright (c) Steve Scherf et al.
# Submitted via: Feurio! 1.65 - http://www.feurio.com
#
DISCID=8609630b
DTITLE=Angela Strehli - Deja Blue
DYEAR=1998
DGENRE=blues
TTITLE0=Cut You Loose
TTITLE1=A Stand By Your Woman Man
TTITLE2=Deja Blue
TTITLE3=A Man I Can Love
TTITLE4=Boogie Like You Wanna
TTITLE5=Give Me Love
TTITLE6=Still A Fool
TTITLE7=Close Together
TTITLE8=Hey, Miss Tonya
TTITLE9=Too Late
TTITLE10=Where The Sun Never Goes Down
EXTD=
EXTT0=
EXTT1=
EXTT2=
EXTT3=
EXTT4=
EXTT5=
EXTT6=
EXTT7=
EXTT8=
EXTT9=
EXTT10=
PLAYORDER=
